# xmcd CD database file
#
# Track frame offsets:
#	150
#	18865
#	33858
#	50495
#	64475
#	82060
#	98073
#	114740
#	130483
#	146640
#	163765
#	207150
#	221118
#
# Disc length: 3179 seconds
#
# Revision: 6
# Processed by: cddbd v1.5.2PL0 Copyright (c) Steve Scherf et al.
# Submitted via: CDex 1.70beta3
#
DISCID=c20c690d
DTITLE=Papa Roach - INFEST
DYEAR=2000
DGENRE=Loud Rock
TTITLE0=Infest
TTITLE1=Last Resort
TTITLE2=Broken Home
TTITLE3=Dead Cell
TTITLE4=Between Angels and Insects
TTITLE5=Blood Brothers
TTITLE6=Revenge
TTITLE7=Snakes
TTITLE8=Never Enough
TTITLE9=Binge
TTITLE10=Thrown Away
TTITLE11=Legacy (Bonus Tracks)
TTITLE12=Dead Cell (live)
EXTD=YEAR: 2000
EXTT0=
EXTT1=
EXTT2=
EXTT3=
EXTT4=
EXTT5=
EXTT6=
EXTT7=
EXTT8=
EXTT9=
EXTT10=
EXTT11=
EXTT12=
PLAYORDER=
